<svg width="50" height="50" viewBox="0 0 50 50" fill="none" xmlns="http://www.w3.org/2000/svg">
<path d="M23 7V0H27V7H23Z"/>
<path d="M23 50V43H27V50H23Z"/>
<path d="M7 27H0V23H7V27Z"/>
<path d="M50 27H43V23H50V27Z"/>
<path d="M10.8579 13.6863L5.90811 8.73654L8.73654 5.90812L13.6863 10.8579L10.8579 13.6863Z"/>
<path d="M41.2634 44.0919L36.3137 39.1421L39.1421 36.3137L44.0919 41.2635L41.2634 44.0919Z"/>
<path d="M13.6863 39.1421L8.73654 44.0919L5.90811 41.2635L10.8579 36.3137L13.6863 39.1421Z"/>
<path d="M44.0919 8.73654L39.1421 13.6863L36.3137 10.8579L41.2634 5.90812L44.0919 8.73654Z"/>
<path fill-rule="evenodd" clip-rule="evenodd" d="M41 25C41 33.8366 33.8366 41 25 41C16.1634 41 9 33.8366 9 25C9 16.1634 16.1634 9 25 9C33.8366 9 41 16.1634 41 25ZM37 25C37 31.6274 31.6274 37 25 37C18.3726 37 13 31.6274 13 25C13 18.3726 18.3726 13 25 13C31.6274 13 37 18.3726 37 25Z"/>
</svg>
