<svg width="38" height="52" viewBox="0 0 38 52" fill="none" xmlns="http://www.w3.org/2000/svg">
<path fill-rule="evenodd" clip-rule="evenodd" d="M23.0055 3.76773C24.6583 5.27834 26.8608 7.48152 29.0665 10.2602C33.4513 15.7841 38 23.7759 38 33.2351C38 38.8423 36.0831 43.5762 32.6477 46.9069C29.2201 50.23 24.4431 52 19 52C13.5569 52 8.77987 50.23 5.35231 46.9069C1.91686 43.5762 0 38.8423 0 33.2351C0 23.7759 4.54871 15.7841 8.93352 10.2602C11.1392 7.48152 13.3417 5.27834 14.9945 3.76773C16.275 2.59737 17.6161 1.54079 19 0.5C20.3839 1.54079 21.725 2.59737 23.0055 3.76773ZM19 5.56921C18.6313 5.88137 18.1897 6.26641 17.693 6.72031C16.1583 8.12298 14.1108 10.1716 12.0665 12.7471C7.95129 17.9314 4 25.0571 4 33.2351C4 37.9037 5.57576 41.5523 8.13662 44.0351C10.7054 46.5255 14.4283 48 19 48C23.5717 48 27.2946 46.5255 29.8634 44.0351C32.4242 41.5523 34 37.9037 34 33.2351C34 25.0571 30.0487 17.9314 25.9335 12.7471C23.8892 10.1716 21.8417 8.12298 20.307 6.72031C19.8103 6.26641 19.3687 5.88137 19 5.56921Z"/>
</svg>
