<svg width="28" height="50" viewBox="0 0 28 50" fill="none" xmlns="http://www.w3.org/2000/svg">
<path fill-rule="evenodd" clip-rule="evenodd" d="M14 11C15.1046 11 16 11.8954 16 13V28.252C19.4505 29.1401 22 32.2723 22 36C22 40.4183 18.4183 44 14 44C9.58172 44 6 40.4183 6 36C6 32.2723 8.54955 29.1401 12 28.252V13C12 11.8954 12.8954 11 14 11ZM14 32C11.7909 32 10 33.7909 10 36C10 38.2091 11.7909 40 14 40C16.2091 40 18 38.2091 18 36C18 33.7909 16.2091 32 14 32Z"/>
<path fill-rule="evenodd" clip-rule="evenodd" d="M14.0346 -0.000350952L14.072 0.000350356C18.7737 0.0884 22.5128 3.79991 22.6048 8.27532L22.6052 8.29587V24.9607C25.8842 27.522 28 31.5055 28 35.9851C28 43.7392 21.6716 50 13.8963 50C6.0758 50 0 43.6939 0 35.9851C0 31.5055 2.11579 27.522 5.39481 24.9607V8.29587L5.39524 8.27532C5.48779 3.77332 9.3228 0.0878874 13.9971 0.000350356L14.0346 -0.000350952ZM9.39481 8.33913V27.0575L8.49914 27.6507C5.77869 29.4524 4 32.5158 4 35.9851C4 41.5476 8.34728 46 13.8963 46C19.4903 46 24 41.5023 24 35.9851C24 32.5158 22.2213 29.4524 19.5009 27.6507L18.6052 27.0575V8.33901C18.549 6.10399 16.638 4.06824 14.0346 4.00049C11.4037 4.06882 9.45079 6.13016 9.39481 8.33913Z"/>
</svg>
