<svg width="64" height="58" viewBox="0 0 64 58" fill="none" xmlns="http://www.w3.org/2000/svg">
<path d="M33 25H36V58H33V25Z"/>
<path d="M43.7966 31.4347L45.7643 33.6992L35.6156 42.5178L33.6479 40.2533L43.7966 31.4347Z"/>
<path d="M25.9677 39L24 41.2645L33.6191 49.623L35.5868 47.3584L25.9677 39Z"/>
<path d="M64 15C61.185 31.967 53.1101 37.7232 40.5 36C40.1101 24.2232 48.593 13.9499 64 15Z"/>
<path d="M0.888123 30.3876C8.49021 45.8152 17.8849 48.9899 29.4576 43.693C26.4246 32.3068 15.3329 24.9261 0.888123 30.3876Z"/>
<path d="M21.4657 0.223145C18.0478 17.0791 23.5405 25.3355 35.9365 28.2204C40.4987 17.3562 36.235 4.73391 21.4657 0.223145Z"/>
</svg>
